<mxfile host="app.diagrams.net" modified="2022-09-12T15:39:24.530Z" agent="5.0 (Windows NT 10.0; Win64; x64) AppleWebKit/537.36 (KHTML, like Gecko) Chrome/105.0.0.0 Safari/537.36" etag="UphsLWHtwdvZp7L0_ybr" version="20.3.0" type="github">
  <diagram id="9n4R8zJslkh1lyXLTGhr" name="第 1 页">
    <mxGraphModel dx="2889" dy="1122" grid="1" gridSize="10" guides="1" tooltips="1" connect="1" arrows="1" fold="1" page="1" pageScale="1" pageWidth="827" pageHeight="1169" math="0" shadow="0">
      <root>
        <mxCell id="0" />
        <mxCell id="1" parent="0" />
        <mxCell id="9IBl438Cf1tJuZQOZl7T-9" style="edgeStyle=orthogonalEdgeStyle;rounded=0;orthogonalLoop=1;jettySize=auto;html=1;fontSize=12;" edge="1" parent="1" source="9IBl438Cf1tJuZQOZl7T-1" target="9IBl438Cf1tJuZQOZl7T-4">
          <mxGeometry relative="1" as="geometry">
            <Array as="points">
              <mxPoint x="300" y="585" />
            </Array>
          </mxGeometry>
        </mxCell>
        <mxCell id="9IBl438Cf1tJuZQOZl7T-10" style="edgeStyle=orthogonalEdgeStyle;rounded=0;orthogonalLoop=1;jettySize=auto;html=1;fontSize=12;" edge="1" parent="1" source="9IBl438Cf1tJuZQOZl7T-1" target="9IBl438Cf1tJuZQOZl7T-2">
          <mxGeometry relative="1" as="geometry">
            <Array as="points">
              <mxPoint y="325" />
              <mxPoint y="585" />
            </Array>
          </mxGeometry>
        </mxCell>
        <mxCell id="9IBl438Cf1tJuZQOZl7T-11" style="edgeStyle=orthogonalEdgeStyle;rounded=0;orthogonalLoop=1;jettySize=auto;html=1;fontSize=12;entryX=1;entryY=0.5;entryDx=0;entryDy=0;" edge="1" parent="1" source="9IBl438Cf1tJuZQOZl7T-1" target="9IBl438Cf1tJuZQOZl7T-3">
          <mxGeometry relative="1" as="geometry">
            <mxPoint y="690" as="targetPoint" />
            <Array as="points">
              <mxPoint y="325" />
              <mxPoint y="710" />
            </Array>
          </mxGeometry>
        </mxCell>
        <mxCell id="9IBl438Cf1tJuZQOZl7T-12" style="edgeStyle=orthogonalEdgeStyle;rounded=0;orthogonalLoop=1;jettySize=auto;html=1;fontSize=12;" edge="1" parent="1" source="9IBl438Cf1tJuZQOZl7T-1" target="9IBl438Cf1tJuZQOZl7T-5">
          <mxGeometry relative="1" as="geometry">
            <Array as="points">
              <mxPoint x="300" y="700" />
            </Array>
          </mxGeometry>
        </mxCell>
        <mxCell id="9IBl438Cf1tJuZQOZl7T-13" style="edgeStyle=orthogonalEdgeStyle;rounded=0;orthogonalLoop=1;jettySize=auto;html=1;fontSize=12;" edge="1" parent="1" source="9IBl438Cf1tJuZQOZl7T-1" target="9IBl438Cf1tJuZQOZl7T-6">
          <mxGeometry relative="1" as="geometry">
            <Array as="points">
              <mxPoint x="340" y="585" />
            </Array>
          </mxGeometry>
        </mxCell>
        <mxCell id="9IBl438Cf1tJuZQOZl7T-14" style="edgeStyle=orthogonalEdgeStyle;rounded=0;orthogonalLoop=1;jettySize=auto;html=1;fontSize=12;" edge="1" parent="1" source="9IBl438Cf1tJuZQOZl7T-1" target="9IBl438Cf1tJuZQOZl7T-8">
          <mxGeometry relative="1" as="geometry">
            <Array as="points">
              <mxPoint x="340" y="700" />
            </Array>
          </mxGeometry>
        </mxCell>
        <mxCell id="9IBl438Cf1tJuZQOZl7T-15" style="edgeStyle=orthogonalEdgeStyle;rounded=0;orthogonalLoop=1;jettySize=auto;html=1;fontSize=12;" edge="1" parent="1" source="9IBl438Cf1tJuZQOZl7T-1" target="9IBl438Cf1tJuZQOZl7T-7">
          <mxGeometry relative="1" as="geometry" />
        </mxCell>
        <mxCell id="9IBl438Cf1tJuZQOZl7T-1" value="&lt;b&gt;&lt;font style=&quot;font-size: 16px;&quot;&gt;Strategic Exposure Revierew&lt;/font&gt;&lt;/b&gt;" style="whiteSpace=wrap;html=1;" vertex="1" parent="1">
          <mxGeometry x="120" y="280" width="400" height="90" as="geometry" />
        </mxCell>
        <mxCell id="9IBl438Cf1tJuZQOZl7T-2" value="&lt;font style=&quot;font-size: 12px;&quot;&gt;DM LargeMidCap Equity&lt;/font&gt;" style="rounded=0;whiteSpace=wrap;html=1;fontSize=16;" vertex="1" parent="1">
          <mxGeometry x="-280" y="555" width="240" height="60" as="geometry" />
        </mxCell>
        <mxCell id="9IBl438Cf1tJuZQOZl7T-3" value="&lt;font style=&quot;font-size: 12px;&quot;&gt;DM SmallCap Equity&lt;/font&gt;" style="rounded=0;whiteSpace=wrap;html=1;fontSize=16;" vertex="1" parent="1">
          <mxGeometry x="-280" y="680" width="240" height="60" as="geometry" />
        </mxCell>
        <mxCell id="9IBl438Cf1tJuZQOZl7T-4" value="&lt;font style=&quot;font-size: 12px;&quot;&gt;Emerging Equity&lt;/font&gt;" style="rounded=0;whiteSpace=wrap;html=1;fontSize=16;" vertex="1" parent="1">
          <mxGeometry x="40" y="555" width="240" height="60" as="geometry" />
        </mxCell>
        <mxCell id="9IBl438Cf1tJuZQOZl7T-5" value="&lt;font style=&quot;font-size: 12px;&quot;&gt;G7 Nominal Bonds&lt;br&gt;&lt;/font&gt;" style="rounded=0;whiteSpace=wrap;html=1;fontSize=16;" vertex="1" parent="1">
          <mxGeometry x="40" y="680" width="240" height="60" as="geometry" />
        </mxCell>
        <mxCell id="9IBl438Cf1tJuZQOZl7T-6" value="&lt;span style=&quot;font-size: 12px;&quot;&gt;EM Nomial Bonds&lt;/span&gt;" style="rounded=0;whiteSpace=wrap;html=1;fontSize=16;" vertex="1" parent="1">
          <mxGeometry x="360" y="555" width="240" height="60" as="geometry" />
        </mxCell>
        <mxCell id="9IBl438Cf1tJuZQOZl7T-18" style="edgeStyle=orthogonalEdgeStyle;rounded=0;orthogonalLoop=1;jettySize=auto;html=1;entryX=0;entryY=0.5;entryDx=0;entryDy=0;fontSize=17;startArrow=none;" edge="1" parent="1" source="9IBl438Cf1tJuZQOZl7T-20" target="9IBl438Cf1tJuZQOZl7T-16">
          <mxGeometry relative="1" as="geometry" />
        </mxCell>
        <mxCell id="9IBl438Cf1tJuZQOZl7T-19" style="edgeStyle=orthogonalEdgeStyle;rounded=0;orthogonalLoop=1;jettySize=auto;html=1;entryX=0;entryY=0.5;entryDx=0;entryDy=0;fontSize=17;startArrow=none;" edge="1" parent="1" source="9IBl438Cf1tJuZQOZl7T-22" target="9IBl438Cf1tJuZQOZl7T-17">
          <mxGeometry relative="1" as="geometry" />
        </mxCell>
        <mxCell id="9IBl438Cf1tJuZQOZl7T-7" value="&lt;span style=&quot;font-size: 12px;&quot;&gt;Global Credit&lt;/span&gt;" style="rounded=0;whiteSpace=wrap;html=1;fontSize=16;" vertex="1" parent="1">
          <mxGeometry x="650" y="620" width="240" height="60" as="geometry" />
        </mxCell>
        <mxCell id="9IBl438Cf1tJuZQOZl7T-8" value="&lt;span style=&quot;font-size: 12px;&quot;&gt;Global Real Estate&lt;/span&gt;" style="rounded=0;whiteSpace=wrap;html=1;fontSize=16;" vertex="1" parent="1">
          <mxGeometry x="360" y="680" width="240" height="60" as="geometry" />
        </mxCell>
        <mxCell id="9IBl438Cf1tJuZQOZl7T-16" value="&lt;font style=&quot;font-size: 17px;&quot;&gt;&lt;b&gt;HY&lt;/b&gt;&lt;/font&gt;" style="rounded=0;whiteSpace=wrap;html=1;fontSize=16;" vertex="1" parent="1">
          <mxGeometry x="1280" y="540" width="110" height="60" as="geometry" />
        </mxCell>
        <mxCell id="9IBl438Cf1tJuZQOZl7T-17" value="&lt;font style=&quot;font-size: 17px;&quot;&gt;&lt;b&gt;IG&lt;/b&gt;&lt;/font&gt;" style="rounded=0;whiteSpace=wrap;html=1;fontSize=16;" vertex="1" parent="1">
          <mxGeometry x="1280" y="710" width="110" height="60" as="geometry" />
        </mxCell>
        <mxCell id="9IBl438Cf1tJuZQOZl7T-20" value="Active ~60%&lt;br&gt;SX Representation 30%" style="text;html=1;align=center;verticalAlign=middle;resizable=0;points=[];autosize=1;strokeColor=none;fillColor=none;fontSize=17;" vertex="1" parent="1">
          <mxGeometry x="970" y="570" width="200" height="50" as="geometry" />
        </mxCell>
        <mxCell id="9IBl438Cf1tJuZQOZl7T-21" value="" style="edgeStyle=orthogonalEdgeStyle;rounded=0;orthogonalLoop=1;jettySize=auto;html=1;entryX=0;entryY=0.5;entryDx=0;entryDy=0;fontSize=17;endArrow=none;" edge="1" parent="1" source="9IBl438Cf1tJuZQOZl7T-7" target="9IBl438Cf1tJuZQOZl7T-20">
          <mxGeometry relative="1" as="geometry">
            <mxPoint x="890" y="650" as="sourcePoint" />
            <mxPoint x="1040" y="570" as="targetPoint" />
          </mxGeometry>
        </mxCell>
        <mxCell id="9IBl438Cf1tJuZQOZl7T-22" value="Active ~40%&lt;br&gt;SX Representation 70%" style="text;html=1;align=center;verticalAlign=middle;resizable=0;points=[];autosize=1;strokeColor=none;fillColor=none;fontSize=17;" vertex="1" parent="1">
          <mxGeometry x="970" y="685" width="200" height="50" as="geometry" />
        </mxCell>
        <mxCell id="9IBl438Cf1tJuZQOZl7T-23" value="" style="edgeStyle=orthogonalEdgeStyle;rounded=0;orthogonalLoop=1;jettySize=auto;html=1;entryX=0;entryY=0.5;entryDx=0;entryDy=0;fontSize=17;endArrow=none;" edge="1" parent="1" source="9IBl438Cf1tJuZQOZl7T-7" target="9IBl438Cf1tJuZQOZl7T-22">
          <mxGeometry relative="1" as="geometry">
            <mxPoint x="890" y="650" as="sourcePoint" />
            <mxPoint x="1040" y="740" as="targetPoint" />
          </mxGeometry>
        </mxCell>
      </root>
    </mxGraphModel>
  </diagram>
</mxfile>
